<?xml version="1.0" encoding="UTF-8" standalone="no"?>
<!DOCTYPE svg PUBLIC "-//W3C//DTD SVG 1.1//EN" "http://www.w3.org/Graphics/SVG/1.1/DTD/svg11.dtd">
<svg width="100%" height="100%" viewBox="0 0 128 128" version="1.1" xmlns="http://www.w3.org/2000/svg" xmlns:xlink="http://www.w3.org/1999/xlink" xml:space="preserve" xmlns:serif="http://www.serif.com/" style="fill-rule:evenodd;clip-rule:evenodd;stroke-linecap:round;stroke-linejoin:round;stroke-miterlimit:1.5;">
    <path d="M64,17C92.148,17 115,39.852 115,68C115,96.148 92.148,119 64,119C35.852,119 13,96.148 13,68C13,39.852 35.852,17 64,17ZM46.316,112.753L52.628,112.753C53.624,107.471 54.122,102.566 54.122,98.039L54.122,90.955C56.462,92.715 58.44,93.921 60.06,94.56C61.701,95.207 63.359,95.524 65.027,95.524C67.616,95.524 70.137,94.779 72.571,93.26C75.017,91.733 76.928,89.501 78.323,86.595C79.717,83.688 80.414,80.558 80.414,77.205C80.414,69.659 77.078,64.098 70.405,60.521C72.671,58.956 74.335,57.109 75.409,54.987C76.501,52.833 77.053,50.572 77.053,48.196C77.053,44.507 75.721,41.321 73.057,38.638C70.393,35.955 66.832,34.614 62.375,34.614C59.164,34.614 56.4,35.424 54.084,37.045C51.794,38.666 50.2,40.692 49.304,43.124C48.433,45.527 47.997,49.23 47.997,54.233L47.997,97.075C47.997,98.891 47.835,101.756 47.511,105.669C47.387,106.926 46.988,109.288 46.316,112.753Z" style="fill:url(#_Linear1);"/>
    <path d="M54.122,87.643L54.122,50.25C54.122,46.226 54.645,43.305 55.69,41.489C57.284,38.75 59.525,37.381 62.413,37.381C64.703,37.381 66.621,38.345 68.164,40.273C69.708,42.202 70.48,44.926 70.48,48.448C70.48,51.913 69.608,55.588 67.865,59.473C65.401,58.746 63.558,58.383 62.338,58.383C61.292,58.383 60.533,58.592 60.06,59.012C59.587,59.431 59.35,59.906 59.35,60.437C59.35,61.024 59.649,61.569 60.247,62.072C60.869,62.575 61.927,62.826 63.421,62.826C64.666,62.826 66.147,62.505 67.865,61.862C69.907,64.713 71.326,67.34 72.123,69.743C72.945,72.119 73.355,74.899 73.355,78.085C73.355,83.144 72.496,86.846 70.778,89.194C69.085,91.514 66.982,92.673 64.467,92.673C63.122,92.673 61.778,92.366 60.433,91.751C58.641,90.913 56.537,89.543 54.122,87.643Z" style="fill:url(#_Linear2);"/>
    <g transform="matrix(1.29114,0,0,1.29114,-16.6962,-23.0253)">
        <circle cx="62.5" cy="70.5" r="39.5" style="fill:url(#_Radial3);stroke:black;stroke-width:3.1px;"/>
    </g>
    <path d="M61.802,37.402L54.122,74.774L54.122,50.25C54.122,46.226 54.645,43.305 55.69,41.489C57.17,38.946 59.207,37.584 61.802,37.402Z" style="fill:rgb(97,179,88);"/>
    <g id="b" transform="matrix(3.18693,0,0,3.57718,-69.1443,-86.206)">
        <path d="M41.268,33.775C42.667,33.775 43.784,34.15 44.62,34.9C45.456,35.65 45.874,36.541 45.874,37.572C45.874,38.236 45.701,38.868 45.358,39.471C45.021,40.064 44.499,40.58 43.788,41.017C45.882,42.017 46.929,43.572 46.929,45.681C46.929,46.619 46.71,47.494 46.272,48.306C45.835,49.119 45.235,49.743 44.468,50.17C43.704,50.594 42.913,50.803 42.1,50.803C41.577,50.803 41.057,50.714 40.542,50.533C40.034,50.355 39.413,50.017 38.679,49.525L38.679,51.506C38.679,52.771 38.522,54.142 38.21,55.619L36.229,55.619" style="fill-rule:nonzero;"/>
        <g transform="matrix(24,0,0,24,34.8114,50.4393)">
            <path d="M0.161,-0.038L0.161,0.044C0.161,0.097 0.155,0.154 0.142,0.216L0.059,0.216C0.068,0.175 0.073,0.148 0.075,0.133C0.079,0.088 0.081,0.054 0.081,0.033L0.081,-0.466C0.081,-0.524 0.087,-0.567 0.098,-0.595C0.11,-0.624 0.131,-0.647 0.161,-0.666C0.191,-0.685 0.227,-0.694 0.269,-0.694C0.327,-0.694 0.374,-0.679 0.409,-0.647C0.444,-0.616 0.461,-0.579 0.461,-0.536C0.461,-0.508 0.454,-0.482 0.439,-0.457C0.425,-0.432 0.404,-0.411 0.374,-0.393C0.461,-0.351 0.505,-0.286 0.505,-0.198C0.505,-0.159 0.496,-0.123 0.478,-0.089C0.459,-0.055 0.434,-0.029 0.402,-0.011C0.37,0.006 0.338,0.015 0.304,0.015C0.282,0.015 0.26,0.011 0.239,0.004C0.218,-0.004 0.192,-0.018 0.161,-0.038ZM0.161,-0.077C0.193,-0.055 0.22,-0.039 0.244,-0.029C0.261,-0.022 0.279,-0.018 0.296,-0.018C0.329,-0.018 0.357,-0.032 0.379,-0.059C0.401,-0.086 0.413,-0.129 0.413,-0.188C0.413,-0.225 0.407,-0.257 0.396,-0.285C0.386,-0.313 0.368,-0.344 0.341,-0.377C0.318,-0.369 0.299,-0.366 0.283,-0.366C0.263,-0.366 0.249,-0.369 0.241,-0.375C0.233,-0.38 0.229,-0.387 0.229,-0.394C0.229,-0.4 0.233,-0.405 0.239,-0.41C0.245,-0.415 0.255,-0.417 0.269,-0.417C0.285,-0.417 0.309,-0.413 0.341,-0.405C0.364,-0.45 0.375,-0.493 0.375,-0.533C0.375,-0.574 0.365,-0.606 0.345,-0.628C0.325,-0.651 0.299,-0.662 0.27,-0.662C0.232,-0.662 0.202,-0.646 0.182,-0.614C0.168,-0.593 0.161,-0.559 0.161,-0.512L0.161,-0.077Z" style="fill-rule:nonzero;"/>
        </g>
    </g>
    <defs>
        <linearGradient id="_Linear1" x1="0" y1="0" x2="1" y2="0" gradientUnits="userSpaceOnUse" gradientTransform="matrix(5.25086e-15,85.7531,-85.7531,5.25086e-15,64,27)"><stop offset="0" style="stop-color:rgb(97,179,88);stop-opacity:1"/><stop offset="1" style="stop-color:rgb(40,132,31);stop-opacity:1"/></linearGradient>
        <linearGradient id="_Linear2" x1="0" y1="0" x2="1" y2="0" gradientUnits="userSpaceOnUse" gradientTransform="matrix(5.25086e-15,85.7531,-85.7531,5.25086e-15,64,27)"><stop offset="0" style="stop-color:rgb(97,179,88);stop-opacity:1"/><stop offset="1" style="stop-color:rgb(40,132,31);stop-opacity:1"/></linearGradient>
        <radialGradient id="_Radial3" cx="0" cy="0" r="1" gradientUnits="userSpaceOnUse" gradientTransform="matrix(4.06684e-15,66.4166,-66.4166,4.06684e-15,62.5,38.7451)"><stop offset="0" style="stop-color:rgb(97,179,88);stop-opacity:1"/><stop offset="0.45" style="stop-color:rgb(75,149,68);stop-opacity:1"/><stop offset="1" style="stop-color:rgb(23,76,18);stop-opacity:1"/></radialGradient>
    </defs>
</svg>
